<svg xmlns="http://www.w3.org/2000/svg" viewBox="0 0 64 64">
  <rect width="64" height="64" rx="14" fill="#003DA5"/>
  <!-- MTA logo, scaled to fit with padding, original viewBox 455x500 -->
  <g transform="translate(7, 6) scale(0.11)">
    <path fill="#fff" d="M205.4,0C120.4,0,45.6,42.4.4,107v.8s69.8,12.1,69.8,12.1c0,0,19.9,148,20.6,148l20.4-141,72.6,12.6v230l-46.5,8.1s0-75.1.8-85c0-9.5,3.8-53.9,2.4-63.3h-3l-26.7,153-45.9,8.1-32.8-165h-2.6c-1,9.1,3.7,63.8,3.7,73.3.8,9.9.8,97.3.8,97.3l-27.1,5.5c45,59.8,117.4,98.5,198.5,98.5,138,0,250-112,250-250S343.4,0,205.4,0ZM274,354l-43,7v-157l-35-4v-59l106,19v50l-28-3v147ZM355,340l-3-22-23,3-3,24-33,5,32-186,31,5,25,166-26,5Z"/>
    <polygon fill="#fff" points="339 226 334 281 347 280 342 226 339 226"/>
  </g>
</svg>
